<?xml version="1.0" encoding="utf-8"?>
<!-- Generator: Adobe Illustrator 20.1.0, SVG Export Plug-In . SVG Version: 6.00 Build 0)  -->
<svg version="1.1" id="Capa_1" xmlns="http://www.w3.org/2000/svg" xmlns:xlink="http://www.w3.org/1999/xlink" x="0px" y="0px"
	 viewBox="0 0 479.9 479.9" style="enable-background:new 0 0 479.9 479.9;" xml:space="preserve">
<path d="M464,130.4V95.6c0-1.4-0.6-2.8-1.7-3.8s-2.5-1.4-4-1.2l-24.2,3.3V75.7c0-1.6-0.7-3-1.9-4c-1.2-0.9-2.8-1.3-4.3-0.9
	l-187.9,49.4L52,70.8c-1.5-0.4-3.1-0.1-4.3,0.9c-1.2,0.9-1.9,2.4-1.9,4v18.3l-24.2-3.3c-1.4-0.2-2.9,0.2-4,1.2
	c-1.1,0.9-1.7,2.3-1.7,3.8v34.9C7.1,130.8,0,138.1,0,147.1v245.5c0,9.2,7.5,16.7,16.7,16.7h223.3c0,0,0,0,0,0s0,0,0,0s0,0,0,0
	s0,0,0,0h223.3c9.2,0,16.7-7.5,16.7-16.7V147.1C479.9,138.1,472.8,130.8,464,130.4z M454,101.3V370l-133.5,18.2l109.9-28.9
	c2.2-0.6,3.7-2.6,3.7-4.8V104L454,101.3z M424.1,350.6l-179.2,47.2V129.3l179.2-47.2V350.6z M55.8,82.1L215,124.1v228.9
	c0,2.8,2.2,5,5,5s5-2.2,5-5V126.7l9.9,2.6v268.4l-9.9-2.6v-12.2c0-2.8-2.2-5-5-5s-5,2.2-5,5v9.5L55.8,350.6V82.1z M25.9,101.3
	l19.9,2.7v250.4c0,2.3,1.5,4.3,3.7,4.8l109.9,28.9L25.9,370V101.3z M10,392.5V147.1c0-3.4,2.6-6.2,5.9-6.6v233.9
	c0,2.5,1.8,4.6,4.3,5l146,19.9H16.7C13,399.2,10,396.2,10,392.5z M469.9,392.5c0,3.7-3,6.7-6.7,6.7H313.6l146-19.9
	c2.5-0.3,4.3-2.5,4.3-5V140.4c3.3,0.4,5.9,3.2,5.9,6.6L469.9,392.5L469.9,392.5z M74.1,119.1c0.7-2.7,3.5-4.2,6.2-3.5l122.7,34.1
	c2.7,0.7,4.2,3.5,3.5,6.2c-0.6,2.2-2.6,3.7-4.8,3.7c-0.4,0-0.9-0.1-1.3-0.2L77.6,125.3C74.9,124.5,73.4,121.8,74.1,119.1z
	 M206.4,190.1c-0.6,2.2-2.6,3.7-4.8,3.7c-0.4,0-0.9-0.1-1.3-0.2L77.6,159.4c-2.7-0.7-4.2-3.5-3.5-6.2c0.7-2.7,3.5-4.2,6.2-3.5
	l122.7,34.1C205.6,184.7,207.1,187.4,206.4,190.1z M206.4,224.2c-0.6,2.2-2.6,3.7-4.8,3.7c-0.4,0-0.9-0.1-1.3-0.2L77.6,193.6
	c-2.7-0.7-4.2-3.5-3.5-6.2c0.7-2.7,3.5-4.2,6.2-3.5l122.7,34.1C205.6,218.8,207.1,221.5,206.4,224.2z M206.4,258.3
	c-0.6,2.2-2.6,3.7-4.8,3.7c-0.4,0-0.9-0.1-1.3-0.2L77.6,227.7c-2.7-0.7-4.2-3.5-3.5-6.2c0.7-2.7,3.5-4.2,6.2-3.5l122.7,34.1
	C205.6,252.9,207.1,255.7,206.4,258.3z M206.4,292.5c-0.6,2.2-2.6,3.7-4.8,3.7c-0.4,0-0.9-0.1-1.3-0.2L77.6,261.8
	c-2.7-0.7-4.2-3.5-3.5-6.2c0.7-2.7,3.5-4.2,6.2-3.5l122.7,34.1C205.6,287.1,207.1,289.8,206.4,292.5z M206.4,326.6
	c-0.6,2.2-2.6,3.7-4.8,3.7c-0.4,0-0.9-0.1-1.3-0.2L77.6,296c-2.7-0.7-4.2-3.5-3.5-6.2c0.7-2.7,3.5-4.2,6.2-3.5l122.7,34.1
	C205.6,321.2,207.1,324,206.4,326.6z M268.4,155.9c-0.7-2.7,0.8-5.4,3.5-6.2l122.7-34.1c2.7-0.7,5.4,0.8,6.2,3.5
	c0.7,2.7-0.8,5.4-3.5,6.2l-122.7,34.1c-0.4,0.1-0.9,0.2-1.3,0.2C271,159.6,269,158.1,268.4,155.9z M268.4,190.1
	c-0.7-2.7,0.8-5.4,3.5-6.2l122.7-34.1c2.7-0.7,5.4,0.8,6.2,3.5c0.7,2.7-0.8,5.4-3.5,6.2l-122.7,34.1c-0.4,0.1-0.9,0.2-1.3,0.2
	C271,193.7,269,192.3,268.4,190.1z M268.4,224.2c-0.7-2.7,0.8-5.4,3.5-6.2l122.7-34.1c2.7-0.7,5.4,0.8,6.2,3.5
	c0.7,2.7-0.8,5.4-3.5,6.2l-122.7,34.1c-0.4,0.1-0.9,0.2-1.3,0.2C271,227.9,269,226.4,268.4,224.2z M268.4,258.3
	c-0.7-2.7,0.8-5.4,3.5-6.2l122.7-34.1c2.7-0.7,5.4,0.8,6.2,3.5c0.7,2.7-0.8,5.4-3.5,6.2l-122.7,34.1c-0.4,0.1-0.9,0.2-1.3,0.2
	C271,262,269,260.6,268.4,258.3z M268.4,292.5c-0.7-2.7,0.8-5.4,3.5-6.2l122.7-34.1c2.7-0.7,5.4,0.8,6.2,3.5
	c0.7,2.7-0.8,5.4-3.5,6.2L274.5,296c-0.4,0.1-0.9,0.2-1.3,0.2C271,296.1,269,294.7,268.4,292.5z M268.4,326.6
	c-0.7-2.7,0.8-5.4,3.5-6.2l122.7-34.1c2.7-0.7,5.4,0.8,6.2,3.5c0.7,2.7-0.8,5.4-3.5,6.2l-122.7,34.1c-0.4,0.1-0.9,0.2-1.3,0.2
	C271,330.3,269,328.8,268.4,326.6z"/>
</svg>
