<?xml version="1.0" encoding="utf-8"?>
<!-- Generator: Adobe Illustrator 20.1.0, SVG Export Plug-In . SVG Version: 6.00 Build 0)  -->
<svg version="1.1" id="Capa_1" xmlns="http://www.w3.org/2000/svg" xmlns:xlink="http://www.w3.org/1999/xlink" x="0px" y="0px"
	 viewBox="0 0 58.2 58.2" style="enable-background:new 0 0 58.2 58.2;" xml:space="preserve">
<g>
	<path d="M39.3,29.1h-6.7c-0.3-1.3-1.4-2.3-2.7-2.7V17c0-0.5-0.4-0.9-0.9-0.9c-0.5,0-0.9,0.4-0.9,0.9v9.5c-1.6,0.4-2.8,1.9-2.8,3.6
		c0,2.1,1.7,3.7,3.7,3.7c1.7,0,3.2-1.2,3.6-2.8h6.7c0.5,0,0.9-0.4,0.9-0.9C40.2,29.6,39.8,29.1,39.3,29.1z M29,31.9
		c-1,0-1.9-0.8-1.9-1.9c0-1,0.8-1.9,1.9-1.9c1,0,1.9,0.8,1.9,1.9C30.9,31.1,30.1,31.9,29,31.9z"/>
	<path d="M48.7,11.1l3.8,3.8c0.2,0.2,0.4,0.3,0.7,0.3s0.5-0.1,0.7-0.3c3-3,3-7.8,0-10.7c-3-3-7.8-3-10.7,0c-0.2,0.2-0.3,0.4-0.3,0.7
		c0,0.2,0.1,0.5,0.3,0.7l4.3,4.3l-1.6,1.6c-4.5-4-10.3-6.4-16.8-6.4s-12.3,2.4-16.8,6.4l-1.6-1.6l4.3-4.3c0.2-0.2,0.3-0.4,0.3-0.7
		c0-0.2-0.1-0.5-0.3-0.7c-3-3-7.8-3-10.7,0c-3,3-3,7.8,0,10.7c0.2,0.2,0.4,0.3,0.7,0.3c0.2,0,0.5-0.1,0.7-0.3l3.8-3.8l1.6,1.6
		c-4.4,4.5-7.1,10.7-7.1,17.5c0,9.2,5,17.3,12.4,21.7l-2.8,2.8c-0.4,0.4-0.4,1,0,1.3c0.2,0.2,0.4,0.3,0.7,0.3s0.5-0.1,0.7-0.3
		l3.2-3.2c3.3,1.6,7.1,2.6,11.1,2.6s7.7-0.9,11.1-2.6l3.2,3.2c0.2,0.2,0.4,0.3,0.7,0.3s0.5-0.1,0.7-0.3c0.4-0.4,0.4-1,0-1.3
		l-2.8-2.8c7.4-4.4,12.4-12.5,12.4-21.7c0-6.8-2.7-12.9-7.1-17.5L48.7,11.1z M52.6,5.5c2,2,2.2,5.1,0.6,7.4l-8-8
		C47.4,3.3,50.6,3.5,52.6,5.5z M4.9,12.8c-1.6-2.2-1.4-5.4,0.6-7.4s5.1-2.2,7.4-0.6L4.9,12.8z M29,53.4c-12.9,0-23.3-10.5-23.3-23.3
		S16.2,6.7,29,6.7s23.3,10.5,23.3,23.3S41.9,53.4,29,53.4z"/>
	<path d="M47.6,19.3c-1.9-3.2-4.6-5.9-7.8-7.8c0,0,0,0,0,0c0,0,0,0-0.1,0C36.6,9.7,32.9,8.6,29,8.6s-7.5,1-10.7,2.9c0,0,0,0-0.1,0
		c0,0,0,0,0,0c-3.2,1.9-5.9,4.6-7.8,7.8c0,0,0,0,0,0s0,0,0,0.1c-1.8,3.1-2.9,6.8-2.9,10.7c0,3.9,1,7.5,2.9,10.7c0,0,0,0,0,0.1
		c0,0,0,0,0,0.1c1.9,3.2,4.6,5.9,7.8,7.8c0,0,0,0,0,0c0,0,0.1,0,0.1,0c3.1,1.8,6.8,2.8,10.7,2.8c3.9,0,7.5-1,10.7-2.8
		c0,0,0.1,0,0.1,0c0,0,0,0,0,0c3.2-1.9,5.9-4.6,7.8-7.8c0,0,0,0,0-0.1c0,0,0,0,0-0.1c1.8-3.1,2.9-6.8,2.9-10.7S49.5,22.5,47.6,19.3
		C47.6,19.4,47.6,19.4,47.6,19.3C47.6,19.3,47.6,19.3,47.6,19.3z M39.6,46.5l-0.4-0.8c-0.3-0.4-0.8-0.6-1.3-0.3
		c-0.4,0.3-0.6,0.8-0.3,1.3l0.4,0.8c-2.4,1.3-5.2,2-8,2.1v-0.9c0-0.5-0.4-0.9-0.9-0.9c-0.5,0-0.9,0.4-0.9,0.9v0.9
		c-2.9-0.1-5.6-0.9-8-2.1l0.4-0.8c0.3-0.4,0.1-1-0.3-1.3c-0.4-0.3-1-0.1-1.3,0.3l-0.4,0.8c-2.4-1.5-4.4-3.5-5.9-5.9l0.8-0.4
		c0.4-0.3,0.6-0.8,0.3-1.3c-0.3-0.4-0.8-0.6-1.3-0.3l-0.8,0.4c-1.3-2.4-2-5.2-2.1-8h0.9c0.5,0,0.9-0.4,0.9-0.9
		c0-0.5-0.4-0.9-0.9-0.9H9.5c0.1-2.9,0.9-5.6,2.1-8l0.8,0.4c0.1,0.1,0.3,0.1,0.5,0.1c0.3,0,0.6-0.2,0.8-0.5c0.3-0.4,0.1-1-0.3-1.3
		l-0.8-0.4c1.5-2.4,3.5-4.4,5.9-5.9l0.4,0.8c0.2,0.3,0.5,0.5,0.8,0.5c0.2,0,0.3,0,0.5-0.1c0.4-0.3,0.6-0.8,0.3-1.3l-0.4-0.8
		c2.4-1.3,5.2-2,8-2.1v0.9c0,0.5,0.4,0.9,0.9,0.9c0.5,0,0.9-0.4,0.9-0.9v-0.9c2.9,0.1,5.6,0.9,8,2.1l-0.4,0.8
		c-0.3,0.4-0.1,1,0.3,1.3c0.1,0.1,0.3,0.1,0.5,0.1c0.3,0,0.6-0.2,0.8-0.5l0.4-0.8c2.4,1.5,4.4,3.5,5.9,5.9l-0.8,0.4
		c-0.4,0.3-0.6,0.8-0.3,1.3c0.2,0.3,0.5,0.5,0.8,0.5c0.2,0,0.3,0,0.5-0.1l0.8-0.4c1.3,2.4,2,5.2,2.1,8h-0.9c-0.5,0-0.9,0.4-0.9,0.9
		c0,0.5,0.4,0.9,0.9,0.9h0.9c-0.1,2.9-0.9,5.6-2.1,8l-0.8-0.4c-0.4-0.3-1-0.1-1.3,0.3c-0.3,0.4-0.1,1,0.3,1.3l0.8,0.4
		C44,43,42,45,39.6,46.5z"/>
</g>
</svg>
