<?xml version="1.0" encoding="utf-8"?>
<!-- Generator: Adobe Illustrator 20.1.0, SVG Export Plug-In . SVG Version: 6.00 Build 0)  -->
<svg version="1.1" id="Layer_1" xmlns="http://www.w3.org/2000/svg" xmlns:xlink="http://www.w3.org/1999/xlink" x="0px" y="0px"
	 viewBox="0 0 512 512" style="enable-background:new 0 0 512 512;" xml:space="preserve">
<style type="text/css">
	.st0{fill:#F1F1F1;}
</style>
<path class="st0" d="M505.7,117.2c-3.7-0.9-7.5,1-9.2,4.4c-24,49.3-72.9,79.9-127.7,79.9h-97.7V177c0-4.5-3.7-8.2-8.2-8.2h-12.5
	v-16.3h10.5c4.5,0,8.2-3.7,8.2-8.2c0-4.5-3.7-8.2-8.2-8.2h-37.3c-4.5,0-8.2,3.7-8.2,8.2c0,4.5,3.7,8.2,8.2,8.2h10.5v16.3h-12.5
	c-4.5,0-8.2,3.7-8.2,8.2v24.5h-18.9V177c0-4.5-3.7-8.2-8.2-8.2h-12.5v-16.3h10.5c4.5,0,8.2-3.7,8.2-8.2c0-4.5-3.7-8.2-8.2-8.2H147
	c-4.5,0-8.2,3.7-8.2,8.2c0,4.5,3.7,8.2,8.2,8.2h10.5v16.3h-12.5c-4.5,0-8.2,3.7-8.2,8.2v24.5H16.3v-3.1c0-4.5-3.7-8.2-8.2-8.2
	S0,193.8,0,198.3v72.2c0,4.5,3.7,8.2,8.2,8.2s8.2-3.7,8.2-8.2v-3.1h42.8c-2.5,7.4-3.8,15.1-3.8,23c0,39.7,32.3,72,72,72h9.4v24.5
	c0,4.5,3.7,8.2,8.2,8.2h41.4c4.5,0,8.2-3.7,8.2-8.2v-24.5h18.9v24.5c0,4.5,3.7,8.2,8.2,8.2h41.4c4.5,0,8.2-3.7,8.2-8.2v-24.5h9.2
	c39.7,0,72-32.3,72-72c0-7.8-1.3-15.5-3.7-22.8l20.2,0c54.8,0,103.8,30.6,127.7,79.8c1.4,2.9,4.3,4.6,7.3,4.6c0.6,0,1.2-0.1,1.8-0.2
	c3.7-0.9,6.3-4.2,6.3-8V125.1C512,121.3,509.4,118,505.7,117.2L505.7,117.2z M229.7,185.1h25.1v16.3h-25.1V185.1z M153.1,185.1h25.1
	v16.3h-25.1V185.1z M16.3,217.8h128.6c0,0,41.4,0,41.4,0c0,0,35.2,0,35.2,0c0,0,41.4,0,41.4,0c0,0,97.7,0,97.7,0v33.4l-77.5,0
	c-0.9-0.1-1.8-0.1-2.8-0.1c-0.4,0-0.8,0-1.3,0.1l-14.9,0c-0.4-0.1-0.8-0.1-1.2-0.1c-0.4,0-0.8,0-1.2,0.1l-39.1,0
	c-0.4-0.1-0.7-0.1-1.1-0.1c-0.4,0-0.7,0-1.1,0.1l-33.1,0c-0.3,0-0.7-0.1-1-0.1c-4.5,0-8.2,3.7-8.2,8.2v54.1h-25.1v-45.9h0.5
	c4.5,0,8.2-3.7,8.2-8.2c0-4.5-3.7-8.2-8.2-8.2h-8.7H71.9c0,0-0.1,0-0.1,0H16.3L16.3,217.8L16.3,217.8z M303.3,290.4
	c0,12.7-10.3,22.9-22.9,22.9h-9.2v-45.8l11.4,0C294.1,268.6,303.3,278.4,303.3,290.4z M229.7,313.3v-45.8l25.1,0v45.8L229.7,313.3
	L229.7,313.3z M194.5,313.3v-45.8l18.9,0v45.8L194.5,313.3L194.5,313.3z M127.4,313.3c-12.7,0-22.9-10.3-22.9-22.9
	c0-12.7,10.3-22.9,22.9-22.9c0,0,9.4,0,9.4,0v45.9L127.4,313.3L127.4,313.3z M178.1,378.7h-25.1v-16.3h25.1V378.7z M254.8,378.7
	h-25.1v-16.3h25.1V378.7z M336,290.4c0,30.7-25,55.6-55.6,55.6H127.4c-30.7,0-55.6-25-55.6-55.6c0-7.9,1.7-15.8,5-23h18.8
	c-4.7,6.5-7.4,14.4-7.4,23c0,21.7,17.6,39.3,39.3,39.3h152.9c21.7,0,39.3-17.6,39.3-39.3c0-8.5-2.7-16.4-7.3-22.8l18.8,0
	C334.2,274.7,336,282.5,336,290.4L336,290.4z M495.7,314.7c-11.4-15.3-25.6-28.4-41.8-38.8c-23.1-14.7-49.5-23.1-76.9-24.5v-33.9
	c27.4-1.4,53.8-9.8,76.9-24.5c16.3-10.4,30.4-23.6,41.8-38.9L495.7,314.7L495.7,314.7z"/>
</svg>
